<?xml version="1.0" encoding="utf-8"?>
<!-- Generator: Adobe Illustrator 22.0.1, SVG Export Plug-In . SVG Version: 6.00 Build 0)  -->
<svg version="1.1" id="图层_1" xmlns="http://www.w3.org/2000/svg" xmlns:xlink="http://www.w3.org/1999/xlink" x="0px" y="0px"
	 viewBox="0 0 2640.8 1459.5" style="enable-background:new 0 0 2640.8 1459.5;" xml:space="preserve">
<style type="text/css">
	.st0{clip-path:url(#SVGID_2_);fill:#FFFFFF;}
	.st1{clip-path:url(#SVGID_2_);}
	.st2{fill:#FFFFFF;}
	.st3{clip-path:url(#SVGID_2_);fill:#FFFFFF;}
	.st4{clip-path:url(#SVGID_2_);fill:none;stroke:#FFFFFF;stroke-miterlimit:10;}
	.st5{fill:#FFFFFF;stroke:#FFFFFF;stroke-width:1.4173;stroke-miterlimit:10;}
	.st6{clip-path:url(#SVGID_2_);fill:none;stroke:#FFFFFF;stroke-width:3;stroke-miterlimit:10;}
	.st7{clip-path:url(#SVGID_4_);}
	.st8{fill:#FFFFFF;}
	.st9{fill:none;stroke:#FFFFFF;stroke-miterlimit:10;}
	.st10{fill:none;stroke:#FFFFFF;stroke-width:2.8346;stroke-miterlimit:10;}
</style>
<g>
	<defs>
		<rect id="SVGID_1_" y="0" width="2640.8" height="1459.5"/>
	</defs>
	<clipPath id="SVGID_2_">
		<use xlink:href="#SVGID_1_"  style="overflow:visible;"/>
	</clipPath>
	<polygon class="st0" points="1570.2,585.3 1581.4,596.4 1532.1,662.9 1524.6,662.9 1496.6,700.7 1536.6,700.7 1544.9,700.7 
		1547.6,703.5 1582.2,703.5 1589.3,703.5 1593.5,703.5 1615.2,703.5 1618.8,703.5 1635.7,703.5 1655.5,676.7 1665.7,662.9 
		1653.1,662.9 1643.1,676.5 1638.8,676.5 1635.1,676.5 1613.5,676.5 1609.3,676.5 1595.5,676.5 1562.6,676.5 1556.1,685.2 
		1552.4,685.2 1558.8,676.5 1558.7,676.5 1601.8,618.4 1679.4,618.4 1699.3,591.4 1669.1,591.4 1663,585.3 	"/>
	<polygon class="st0" points="1697.9,585.4 1666.4,585.4 1668.9,587.9 1670.5,587.9 1670.6,587.9 1682.5,587.9 1682.5,587.9 
		1696,587.9 1703.4,594.5 1685.6,618.4 1688.9,618.4 1689.7,618.4 1719.4,618.4 1722,615.1 1692.2,615.1 1707.5,594.5 	"/>
	<polygon class="st0" points="1352.4,587.9 1358.3,587.9 1358.3,587.9 1365.8,587.9 1363.3,585.4 1355.9,585.4 1352.3,581.8 
		1352.4,581.8 1349.9,579.3 1343.6,579.3 1305.8,579.3 1299,572.5 1243.8,572.5 1237,579.3 1237,579.3 1237,579.3 1237,579.3 
		1237,579.3 1245.7,587.9 1249.7,587.9 1243.6,581.8 1346.1,581.8 	"/>
	<path class="st0" d="M1637.8,624.9l-49.4,25l17.9-25H1637.8z M1646.2,622.9h-40.8l-23.3,32.5L1646.2,622.9z"/>
	<polygon class="st0" points="1555.2,579.3 1563.9,587.9 1567.9,587.9 1561.8,581.8 1650.5,581.8 1648,579.3 	"/>
	<path class="st0" d="M925,676.5h-44.7c5.3,8.7,10.9,17.8,16.7,27h7.9L925,676.5z"/>
	<path class="st0" d="M1330.4,618.4h9.1l-11.1,15h12h-30.2c-12.7,9.5-24.5,18.5-35.7,27h45.9l-11.9,16h-54.8
		c-12.4,9.6-24,18.6-34.7,27h13.7h70.2h22.3l51.9-70.1h-12l23.5-31.7l-10.3-10.3h-10.5c-8.2,5.8-16.1,11.5-23.7,17.1
		c-1.3,1-2.6,1.9-3.9,2.9C1336.9,613.7,1333.6,616.1,1330.4,618.4"/>
	<path class="st0" d="M1215.9,660.5h12l-31.9,43h18.8c12.9-10,26.8-20.9,42.1-32.8l7.6-10.3h5.7c11.1-8.6,23-17.6,35.7-27h-21.3h0
		h-12l2.5-3.3h12l8.7-11.7h30.4c5.3-3.9,10.7-7.8,16.2-11.9c1.6-1.1,3.2-2.3,4.8-3.5c5.3-3.8,10.7-7.7,16.2-11.7h-3.9h-8.7l-6.1-6.1
		H1252l11.3,11.3L1215.9,660.5z"/>
	<polygon class="st0" points="1530.7,659.6 1564.3,614.4 1576.9,597.4 1570.9,591.4 1544.7,591.4 1524.7,591.4 1536.2,602.9 
		1463.6,700.7 1492.6,700.7 1523.1,659.6 	"/>
	<path class="st0" d="M829.4,703.5h64.7c-5.8-9.2-11.4-18.3-16.7-27h-29.1l-5.9,7.9h-3.7l5.9-7.9h-0.1l4.4-6.1l-7-40.8l-0.3-0.6
		h-4.2l-46.6,62.8l-4.9-37.4h-8.1l-0.4-3.3h33.1h6.4l18.8-25.3h6l25.5-34.4h-36.6h-10.8l-6.1-6.1h-92.8l12.5,12.5l-47,63.4h-6
		L649,703.5h6h30.6h6l31.3-42.3l16.3-22l4.2,31.7h8l4.3,32.5h33.6v0h36.9l-5.1-8.9h-30l-0.3-2.7h32L829.4,703.5z M758.6,634.1h-15.6
		l11.6-15.7h55.8l-1.8,2.4h-8l-9.8,13.3h-15.8H758.6z"/>
	<path class="st0" d="M2010.9,543.1c-6.3,15.8-11.5,27.4-12.7,30h-44l-7.5-7.5l-0.3-0.3h-0.4h-41.2l116-48.2 M2020.8,517.1
		c-3.3,9.3-6.7,18.2-9.8,25.9 M2022.5,515.4l-122.7,51h46.2l7.8,7.8h45.1C1998.9,574.1,2011.1,547.6,2022.5,515.4"/>
	<path class="st0" d="M2010.9,543.1c-6.3,15.8-11.5,27.4-12.7,30h-44l-7.5-7.5l-0.3-0.3h-0.4h-41.2l116-48.2 M2020.8,517.1
		c-3.3,9.3-6.7,18.2-9.8,25.9 M2022.5,515.4l-122.7,51h46.3l7.8,7.8h45.1C1998.9,574.1,2011.1,547.6,2022.5,515.4"/>
	<path class="st0" d="M888,591.4h-17.1l-27.2,36.7c1,0.6,10.6,6.6,25.4,15.1l18.4-24.8h92.7l15.8-21.3l-5.7-5.7H888z"/>
	<polygon class="st0" points="1869.5,579.3 1878.1,587.9 1882.1,587.9 1876,581.8 1964.7,581.8 1962.2,579.3 1938.2,579.3 
		1931.4,572.5 1876.2,572.5 1869.5,579.3 1869.4,579.3 1869.4,579.3 1869.4,579.3 	"/>
	<path class="st0" d="M1427.6,390.4V405l-36.1,37.1h-22.4l13.8-12.6c14.7-13.6,30.1-26.7,45.7-39.1 M1429.6,388.3
		c-15.2,12-31.2,25.4-47.4,40.4l-15.7,14.3h25.4l37.7-37.7V388.3z"/>
	<path class="st0" d="M1431.5,378.7l11.6-29.4l0.1-0.1l52.6-35.6l33.5,0.4l-5,2.1c4.6-2.5,9.1-4.9,13.5-7.1l0,0
		c10.9-5.5,17.2-8.1,17.2-8.2c29.9-10.2,61-19.3,92.5-27l0.2,1c-31.4,7.7-62.5,16.8-92.4,26.9c0,0-6.3,2.6-17.1,8.1
		c-7.9,4-16.2,8.5-24.7,13.4l-0.5-0.9c3.3-1.9,6.5-3.7,9.7-5.5l-27.4-0.3l-51.5,34.2l-10.1,24.8c26-20,52.7-37.9,79.3-53.2l0.5,0.9
		c-27.1,15.5-54.2,33.8-80.6,54.2L1431.5,378.7z M1537.4,318.4l4-2l127.2,0l49.6-48.6l0.7,0.7l-50.9,50.9L1537.4,318.4z
		 M1691.4,265.2l-0.2-1l1.7-0.4l3.1-0.6c5.3-1,10.6-2.1,15.9-3l0.1,0.5l-0.1-0.5c4.6-0.9,9.8-1.8,15.9-2.8l0.2,1
		c-6,1-11.2,2-15.9,2.8l0,0c-5.3,1-10.6,2-15.9,3L1691.4,265.2z M1747.5,255.2l-0.2-1c5.1-0.8,10.2-1.5,15.3-2.3l0.1,1
		C1757.7,253.6,1752.6,254.4,1747.5,255.2z M1762.8,252.9l-0.1-1c20.7-2.9,41.7-5.3,62.4-7.2c48.3-4.3,86.6-4.8,105.1-4.7
		c20.8,0.1,41.8,0.8,62.5,2.1l-0.1,1c-20.7-1.3-41.7-2-62.5-2.1c-18.5-0.1-56.8,0.4-105,4.7C1804.4,247.6,1783.4,250,1762.8,252.9z"
		/>
	<g class="st1">
		<polygon class="st2" points="1740.1,264.9 1726.8,257.5 1731.5,256.7 1740.9,261.6 1747.4,254.2 1748.1,254.8 		"/>
	</g>
	<path class="st0" d="M870.3,646.8l-19.5,26.3h12.6l7-9.5h29.9C889.2,657.5,878.9,651.8,870.3,646.8"/>
	<path class="st0" d="M957.4,703.5l6.3-8.5c-10.4-4.6-21.4-9.8-32.9-15.6c-1-0.5-2-1-3.1-1.5l-19,25.7h12.1H957.4z"/>
	<path class="st0" d="M841.4,629.1l7.5,41.1l19-25.4C857,638.5,841.4,629.1,841.4,629.1"/>
	<polygon class="st0" points="1016.1,697.5 966.2,697.5 960.4,705.2 1023.2,705.2 	"/>
	<path class="st0" d="M1079.5,663.6l26.7-36.1h7.4l26.7-36.1h-7.4h-29.2h-7.4h-8.7l-6.1-6.1h-92.7l11.3,11.3l-38.3,51.6h-3.6
		l8.6-11.6H878l-6.1,8.2c9.6,5.5,21.2,12,33.9,18.8h32.5l-9,12.2c11.6,5.9,23.8,11.7,36,17.1l21.7-29.3h55.9h27.5H1079.5z
		 M1007,636.5l13.4-18.1h63.3l-2.5,3.3h-7.4l-11,14.8H1007z"/>
	<path class="st0" d="M739.7,676.8l9.2,8.2l-6.7,9.1l-0.5,0.6l0.5,0.6l5.9,7.1h-20.5l4.9-7l0.2-0.3v-0.3v-8.5L739.7,676.8z
		 M739.5,675.4l-7.8,10.8v8.8l-6,8.6h24.5l-7.2-8.7l7.2-9.8L739.5,675.4z"/>
	<path class="st0" d="M727.4,665.8l3,2.7l5.6,5l-8,11.1l-0.2,0.3v0.3v8.5l-6.2,8.9h-13.6l10.2-14.5l0.2-0.3v-0.3v-8.8L727.4,665.8z
		 M727.2,664.3l-9.9,13.9v9.1L706,703.5h16.1l6.7-9.5v-8.8l8.5-11.8l-6.3-5.6L727.2,664.3z"/>
	<path class="st0" d="M1692.8,402.9l-16.3,8.2h-34.8h-0.3l-0.2,0.1c-49.5,28-99.6,57.5-148.8,89.7h-44.8l-30.4-25.7h-4.3h-0.4h-10.2
		c13.9-12.6,28.2-25.1,42.6-37.4h99.1h0.4l0.3-0.3l33.7-34.7h8.1h73.4H1692.8 M1697,401.9h-37h-73.4h-8.5l-34,35h-99.4
		c-17.4,14.8-33.7,29.3-45.9,40.4h15.7l28.7,24.7l49.5,1c38.8-25.4,89.4-54.6,148-87.8h35L1697,401.9z"/>
	<polygon class="st0" points="2028.7,591.4 2020.1,591.4 2013.7,585.4 1982.2,585.4 1984.7,587.9 2011.8,587.9 2015.7,591.4 
		1983.3,591.4 1977.1,585.2 1884.4,585.2 1895.7,596.5 1812.2,708.7 1848.8,708.7 1913.6,621.7 1895.7,621.7 1898.2,618.4 
		1916.1,618.4 2008.7,618.4 2023.5,598.4 2027.1,601.7 2003.1,633.9 2007.2,633.9 2031.2,601.7 2025.2,596.1 	"/>
	<polygon class="st0" points="2003.7,641.6 2000.2,641.6 1981.3,667.1 1913.2,667.1 1908.6,673.6 1987.3,673.6 1992.4,667.1 
		2024,624.5 2015.9,624.5 	"/>
	<path class="st0" d="M2077.8,376.7c-2.1,9.7-10,17.1-20,18.5c-14.4,2-29.7,4.9-45.4,8.6l-16.1,4c-22.6,5.9-46.3,13.5-70.7,22.6
		l-10.6,4c-10.8,4.2-21.9,8.7-32.9,13.4c-8.1,3.5-16.5,7.2-24.8,11l-8.6,4c-32.3,15.2-54.8,27.7-59.5,30.4h-38.5h-2.6l1.9,1.7l8.9,8
		l0.3,0.3h0.4h31.9h0.3l0.2-0.1l0.9-0.5c0.4-0.2,41.5-23.9,100.4-48.6l21.2,21.2l0.3,0.3h0.4h56.6h71.4l-16,5.1h-72.2h-0.2l-0.2,0.1
		c-35.6,15-72.6,31.1-109.8,47.8l-4.3,1.9h4.7h52.7l-15,5.5h-54.4h-84.1l-42.4-42.4l-0.3-0.3h-0.4h-7.2c1.3-0.6,2.6-1.3,3.9-1.9l0,0
		l0,0c23.6-11.7,47.7-22.7,71.4-32.8l23.9-9.8c18.1-7.2,36.5-14.1,54.8-20.4c6.5-2.3,17.1-6,18.2-6.2h0.1l0.2,0
		c21.1-6.9,42.4-13.2,63.4-18.8l16.6-4.3C2020.9,380.5,2069.5,377.1,2077.8,376.7 M2079.1,375.6c0,0-50.2,1.9-132.7,22.4l-16.6,4.3
		c-19.6,5.2-40.8,11.4-63.4,18.8c-1,0-18.5,6.3-18.5,6.3c-17.6,6.1-35.8,12.8-54.8,20.4l-23.9,9.9c-23,9.7-46.9,20.6-71.5,32.8l0,0
		l0,0c-2.6,1.3-5.1,2.5-7.7,3.8h11.5l42.7,42.7h84.5h54.5l20.5-7.5h-58.3c30.8-13.8,67.6-28.5,108.8-45.8h72.4l23.3-9.1H1972h-56.6
		l-21.7-21.7c-58.6,24.5-100.3,48.5-101.1,48.9l-0.9,0.5h-31.9l-8.9-8h38.7c4.8-2.7,27.2-15.2,59.7-30.5l8.6-4
		c7.8-3.6,16.1-7.3,24.8-11c11.4-4.9,22.3-9.3,32.9-13.4l10.6-4c26.1-9.7,49.7-17,70.6-22.6l16.1-4c17.1-4,32.2-6.8,45.3-8.6
		c10.7-1.5,19.3-9.7,21.1-20.4L2079.1,375.6z"/>
	<path class="st0" d="M2069.9,403.7c-12.5,29.5-32.5,42.8-33.8,43.6c-14.5,5.8-29.6,11.9-44.9,18.1h-72l-15.7-15.7
		C1965.4,424.7,2021.4,409.2,2069.9,403.7 M2071.5,402.5c-58.2,6.3-119.5,26.4-169.8,47l17,17h72.6c14.9-6.1,30-12.2,45.2-18.2
		C2036.5,448.3,2058.4,434.7,2071.5,402.5"/>
	<polygon class="st0" points="1873.5,708.7 1909.1,660.9 1977.1,660.9 1997.1,633.9 1916.5,633.9 1896.5,660.9 1896.5,660.9 
		1861,708.7 	"/>
	<path class="st0" d="M1237.3,586.4l0.5,0.5h-39.6h-2.4l1.7,1.7l14.7,14.7l-50.9,68.7h-34.6l0.6-0.8l75.5-74.6l0.7-0.7l-0.7-0.7
		l-8.7-8.7h17.6H1237.3z M1237.7,585.4h-26h-20l10.4,10.4l-75.5,74.6l-1.9,2.5h37.1l51.7-69.7l-15.3-15.3h42L1237.7,585.4z"/>
	<polygon class="st0" points="1147.3,587.9 1164,587.9 1165.8,585.4 1129.2,585.4 1127.4,587.9 1147.3,587.9 	"/>
	<polygon class="st0" points="1802.6,703.5 1812.7,703.5 1891.2,597.5 1885.5,591.8 1885.1,591.4 1859.2,591.4 1803.3,591.4 
		1773.8,591.4 1766.6,591.4 1743.8,622.1 1737.1,622.1 1678.7,700.7 1722,700.7 1780.8,621.7 1770.4,621.7 1772.8,618.4 
		1783.2,618.4 1839.1,618.4 1796.1,676.5 1745.7,676.5 1727.8,700.7 1782.9,700.7 1784.5,703.5 	"/>
	<polygon class="st0" points="874.1,587.9 977.8,587.9 975.3,585.4 975.2,585.4 961.8,572.1 948.5,585.4 873,585.4 855.9,585.4 
		854,587.9 874.1,587.9 	"/>
	<polygon class="st0" points="1114.6,631.3 1107,631.3 1055.6,700.7 1131.7,700.7 1134.3,703.5 1143.5,703.5 1167.9,703.5 
		1180.2,703.5 1192.2,703.5 1221.8,663.6 1209.8,663.6 1258.8,597.5 1252.7,591.4 1226.7,591.4 1206.7,591.4 1218.1,602.9 
		1166,673.1 1176.6,673.1 1174.1,676.5 1163.6,676.5 1121.5,676.5 1115.1,685.2 1111.4,685.2 1117.8,676.5 1117.8,676.5 
		1180.8,591.4 1144.2,591.4 	"/>
	<polygon class="st0" points="986.4,587.9 980.3,581.8 1082.9,581.8 1089.1,587.9 1096.3,587.9 1123.5,587.9 1125.4,585.4 
		1118,585.4 1093.8,585.4 1087.7,579.3 1080.3,579.3 973.7,579.3 982.4,587.9 	"/>
	<path class="st0" d="M1693.7,503.3l42.4,42.4l70.4,0.3c-24.8,11.4-39.8,18.5-39.9,18.6l-15.9,7.1l-31.8,15l-7.6-7.6l-0.3-0.3h-0.4
		h-39.2l-7-7l-0.3-0.3h-0.4H1554l33.6-19.7l20.8-11.9c21.7-12.8,44-25.1,66.1-36.6h29.2 M1704.1,502.3h-29.9
		c-0.1,0.1-0.2,0.1-0.3,0.2c-21.6,11.2-43.6,23.4-66.1,36.6l-20.8,11.9l-36.8,21.6h113.3l7.3,7.3h39.6l8.1,8.1l32.5-15.3l15.9-7.1
		c0,0,16.5-7.9,44.1-20.5h-64.3L1704.1,502.3z"/>
	<path class="st0" d="M1551.9,563.1l-0.5-0.9l36.8-21.6l20.8-11.9c22.3-13.2,41.6-24.2,63.4-35.5l0.1-0.1h21v1h-20.8
		c-21.7,11.3-41,22.3-63.3,35.5l-20.8,11.9L1551.9,563.1z"/>
	<polygon class="st0" points="1856.7,585.4 1844.2,585.4 1788.3,585.4 1767,585.4 1760.9,585.4 1750.8,585.4 1748.5,585.4 
		1723.3,618.4 1741.8,618.4 1765.1,587.9 1769.9,587.9 1863.8,587.9 1872.6,587.9 1874.2,587.9 1863.8,578.3 	"/>
	<path class="st0" d="M1411.9,487.3l30.4,26.4l4.3,0.3h0.4h19.1h11.4h44.4l-13.6,6.1h-42.9h-0.3l-0.3,0.2
		c-29.9,20.1-47.6,32.9-47.8,33l-18.5,13.8l-12.5,8.2h-72.5l-7.6-7.6l-3.3-0.3h-0.4h-68.1l11.3-10.8l16.2-15.4l35-31.9h67.1h2.1h0.4
		l0.3-0.3l1.5-1.4c0.1-0.1,7.8-7.7,21.3-20.2h30.7 M1416.4,486.3h-27.5c-13.6,12.6-21.4,20.3-21.7,20.5l-1.5,1.4h-2.1h-68.5
		l-35.3,32.2l-16.2,15.4l-13.1,12.5h71.6l7.9,7.9h76.2l12.7-8.4l18.6-13.8c0,0,17.5-8.7,47.8-29h43.1l18.1-12.1h-49.1h-11.4h-19.1
		L1416.4,486.3z"/>
	<polygon class="st0" points="1449.1,601.7 1444.4,596.8 1448.4,591.4 1439.2,591.4 1433.4,585.4 1396.8,585.4 1376.8,585.4 
		1379.3,587.9 1379.7,587.9 1393.1,601.3 1371.9,629.9 1378.9,629.9 1398.7,603.2 1383.3,587.9 1431.6,587.9 1435,591.4 
		1411.8,591.4 1391.8,591.4 1403.3,602.9 1328.7,703.5 1341.5,703.5 1444.8,703.5 1442.1,700.7 1451.7,700.7 1457.7,700.7 
		1459.9,700.7 1476.1,678.7 1487.8,662.9 1475.2,662.9 1465.2,676.4 1389.1,676.4 1382.7,685.2 1378.9,685.2 1385.4,676.4 
		1385.3,676.4 1442.6,599.2 1445,601.7 1405.1,655.4 1409.2,655.4 	"/>
	<path class="st0" d="M1555.5,586.4l0.5,0.5h-39.7h-2.4l1.7,1.7l14.7,14.7l-6,8l-34.9,47.1h-2.8h-11.7h-3.8h-0.5l-0.3,0.4l-9.7,13.1
		h-66.2l2.9-4.1l7.4-4.6l112.9-69.9l1.1-0.7l-0.9-0.9l-5.5-5.5h17.6H1555.5z M1555.9,585.4h-26.2h-20l7.2,7.2L1404,662.4l-7.6,4.7
		l-4.1,5.8h68.6l0.2-0.3l9.8-13.2h3.8h11.7h3.3l35.2-47.5l6.5-8.7l-15.3-15.3h42.1L1555.9,585.4z"/>
	<polygon class="st0" points="667.2,646.8 667.4,647.1 678.6,631.9 	"/>
	<polygon class="st0" points="852.2,585.4 825.5,585.4 821.9,581.8 821.9,581.8 819.4,579.3 812.4,579.3 764.6,579.3 757.8,572.5 
		702.6,572.5 695.8,579.3 695.8,579.3 695.8,579.3 695.8,579.3 695.8,579.3 708.3,591.8 701.4,601.2 701.9,601.5 678.6,631.9 
		667.4,647.1 661.3,655.2 655.3,655.2 619.4,703.5 625.4,703.5 634.5,703.5 668.6,657.7 674.6,657.7 682.6,646.9 682.6,633.7 
		713.5,592.9 702.4,581.8 706.6,581.8 716.8,591.6 686.9,631 686.9,640.1 721.5,593.3 709.5,581.8 815,581.8 821.2,587.9 828,587.9 
		850.3,587.9 	"/>
	<path class="st0" d="M645.1,590.8l18.3,16.8l1.3,1.2l8.8,8.1l8.1,7.4l0.8,0.7l-4.6,6.2l-10.3,13.5l-1.6-3.6l-0.6-1.2l-2.1-4.7
		l-1.7-4l-3.6-8.3l-2-7.3c2.2-1,3.6-3.1,3.6-5.5c0-3.3-2.7-6.1-6.1-6.1c-0.7,0-1.4,0.1-2.1,0.4l-1.8-2.1l-1.7-4.1l-0.5-1.3
		L645.1,590.8 M641.7,583.2l4.8,14l0.5,1.3l1.7,4.1l1.1,2.9l0.1,0.2c0.8-0.5,1.6-0.7,2.6-0.7c2.8,0,5.1,2.3,5.1,5.1
		c0,2.4-1.7,4.4-3.9,4.9l3.4,8.3l3.6,8.4l1.7,4l2.6,5.9l0,0l2.3,5.2l11.4-14.9l9.1-8.9L641.7,583.2z"/>
	<polygon class="st0" points="678.6,631.9 701.9,601.5 701.4,601.2 683.7,625 	"/>
	<polygon class="st3" points="1228.3,711.6 1227,710 1247.2,692.6 1242,682 1243.8,681.1 1249.6,693.1 	"/>
	<path class="st0" d="M1909.4,554.4c-0.2,0-0.4-0.1-0.5-0.3c-0.1-0.3,0-0.5,0.3-0.7l118-49c0,0,0,0,0,0l2.1-0.9
		c0.3-0.1,0.5,0,0.7,0.3c0.1,0.3,0,0.5-0.3,0.7l-2.1,0.9c0,0,0,0,0,0l-118,49C1909.5,554.4,1909.4,554.4,1909.4,554.4z"/>
	<path class="st0" d="M1952.7,562.4l-2.5-2.6l-16.5,0.3l41.4-17.2l-8.1,19.3L1952.7,562.4z M1950.6,558.8l2.5,2.6l13.2-0.3l6.9-16.4
		l-34.3,14.3L1950.6,558.8z"/>
	<path class="st0" d="M1667.7,527.3l-0.1,0l-27.1-0.5l27.7-15.1l0.1,0l27.1,0.5L1667.7,527.3z M1644.3,525.9l23.2,0.4l24.2-13.1
		l-23.2-0.4L1644.3,525.9z"/>
	<path class="st0" d="M1633,546.5l-0.1,0l-27.1-0.5l27.7-15.1l0.1,0l27.1,0.5L1633,546.5z M1609.6,545.1l23.2,0.4l24.2-13.1
		l-23.2-0.4L1609.6,545.1z"/>
	<path class="st0" d="M1600.5,565.8l-0.1,0l-27.1-0.5l27.7-15.1l0.1,0l27.1,0.5L1600.5,565.8z M1577.1,564.4l23.2,0.4l24.2-13.1
		l-23.2-0.4L1577.1,564.4z"/>
	<polygon class="st4" points="1909.2,554.1 1900.5,565.9 1946.2,565.8 1954.1,573.6 1995.7,573.6 2002.3,573.6 2029.6,503.5 	"/>
	<g class="st1">
		<path class="st2" d="M905.3,734.8c5.8,9,11.6,17.8,17.1,26.3l15.9-21.4h92.5l13.5-18.2l-8.8-8.8h-77.1h-4.9h-14.6h-17.1h-24.9
			l14.3,14.3L905.3,734.8z"/>
		<polygon class="st2" points="1571.6,828.3 1544.5,828.3 1540.2,832.9 1567.3,832.9 		"/>
		<polygon class="st2" points="1600.3,828.3 1573.2,828.3 1568.9,832.9 1596,832.9 		"/>
		<polygon class="st2" points="1416.7,830.4 1232,830.4 1229.9,833.2 1414.7,833.2 		"/>
		<polygon class="st2" points="1542.8,828.3 1515.7,828.3 1511.4,832.9 1538.5,832.9 		"/>
		<polygon class="st2" points="1441.7,739.6 1456.7,719.5 1449.8,712.6 1368.1,712.6 1348.6,712.6 1331.4,712.6 1278.4,784.2 
			1273.6,784.2 1252,813.2 1287,813.2 1293.6,824.7 1378.6,824.7 1398.7,797.7 1308.7,797.7 1303.5,804.8 1299.8,804.8 1305,797.7 
			1305,797.7 1348,739.6 		"/>
		<polygon class="st2" points="1466.9,761.8 1475.4,826.1 1512,826.1 1505,773.7 1513.9,773.7 1538.1,773.7 1550.5,773.7 
			1594.8,714 1569.4,714 1558.2,714 1547.9,714 1542.7,708.7 1450,708.7 1461.2,720 1461.3,720 1436.6,753.3 1473.2,753.3 
			1482.3,741 1538.1,741 1548.3,741 1545.9,744.3 1535.7,744.3 1526.5,756.7 1502.8,756.7 1486.3,756.7 1470.7,756.7 1462.9,756.7 
			1434.1,756.7 1341.1,756.7 1322,782.4 1411.2,782.4 1417.6,773.8 1421.3,773.8 1415,782.4 1415,782.4 1382.6,826.1 1419.3,826.1 
					"/>
		<polygon class="st2" points="1464.2,832.9 1472.9,832.9 1509.1,832.9 1513.4,828.3 1472.3,828.3 1464.6,769.5 1455.5,781.7 
			1462.3,832.9 		"/>
		<polygon class="st2" points="1626.5,794.2 1633,785.5 1617.9,785.5 1613.3,791.7 1525.9,791.7 1526.2,794.2 		"/>
		<polygon class="st2" points="1240.1,849.8 1245.2,849.8 1387.7,849.8 1392.6,843.2 1377.5,843.2 1374.8,846.9 1243,846.9 
			1234.4,835.7 1229.1,835.7 1239.6,849.8 		"/>
		<polygon class="st2" points="1222.8,824.7 1239.5,824.7 1290.5,824.7 1285.4,815.8 1246.1,815.8 1272,780.9 1276.3,780.9 
			1326.9,712.6 1306.9,712.6 1270.2,712.6 1281.4,723.8 1219.8,750.8 1208.3,736.4 1208.3,736.4 1189.4,712.6 1189.4,712.7 
			1189.3,712.6 1136.3,784.2 1130.6,784.2 1100.5,824.7 1106.2,824.7 1127,824.7 1142.8,824.7 1181.6,772.4 1198.3,793.3 
			1245.9,772.4 1207.1,824.7 		"/>
		<path class="st2" d="M1096.5,824.7l32.5-43.9h5.1l50.6-68.2h-36.6h-14.5l-5.2-5.2h-92.8l11.3,11.3l2.4,2.4l-46.8,63.1h-11.9
			l-10,13.5h-4l12.5-16.8h11.1l13-17.5h-11h-19h-6.6h-11h-19.1l-13,17.5h19.1l-9,12.2c9,13.5,16.6,24.6,21.4,31.7h2.7h4.8h24.8h11.9
			l27.8-37.5h50.7l-2.9,3.9h0l-24.9,33.6h5.1H1096.5z M1056.9,760.2l15.2-20.5h64.1l-2.5,3.3h-8.2h-5.1l-12.7,17.2H1056.9z"/>
		<polygon class="st2" points="811.2,824.7 826.5,824.7 829,824.7 851.6,794.2 856.8,794.2 859.9,790.1 859.9,778.3 891.1,735.1 
			880.6,735.1 838.6,791.7 830.3,791.7 805.9,824.7 		"/>
		<path class="st2" d="M1214.2,836.7l9.3,12.1h-3.1l-9-12.1H1214.2z M1214.7,835.7h-6.3l10.5,14.1h6.6L1214.7,835.7z"/>
		<path class="st2" d="M1224,836.7l9.3,12.1h-3.1l-9-12.1H1224z M1224.5,835.7h-6.3l10.5,14.1h6.6L1224.5,835.7z"/>
		<path class="st2" d="M788.5,724.2l42.6,36.7l3.5,3l7.1,6l4.6,3.9l-8.7,11.7h-4.9l-23-23l-24.4-24.4l-7.5-7.5l-2.5-2.5l-3.7-3.7
			H788.5z M793.9,723.2h-24.8l5.5,5.5l2.5,2.5l7.5,7.5l24.4,24.4l23.3,23.3l7.8,1l11.6-13.8l-5.3-4.5l-7.1-6l-3.5-3L793.9,723.2z"/>
		<polygon class="st2" points="1581.9,837.9 1405.6,837.9 1396.7,849.8 1572.6,849.8 		"/>
		<path class="st2" d="M845.9,824.7h9.7h64.5h11h25.5h0.2h5.2c-4.8-7-11.7-17.3-19.9-29.6l-1.9,2.6h-41.3l-5.2,7.1H890l30.8-41.6
			c-5.6-8.5-11.3-17.3-17.1-26.3l-45.1,60.8h-5.3l-20,27h5.3H845.9z"/>
		<path class="st2" d="M1388.1,899.1c28.3,7.8,80.7,22.3,145.7,22.5l18.6,22.2h-116.1h-0.4l-0.3,0.3l-10.3,8.7l-40.2-40.1l-0.3-0.3
			h-0.4h-70.8l-8.5-8.5l-0.3-0.3h-0.4h-6.7h-2.4l1.7,1.7l17.8,17.8l2.7,1.3l16.2,1l5.3-5.3l44.3-0.2l28,27.5v6.6v0.4l0.3,0.3
			l6.7,6.7l-8.7,8.7c-101.5-25-177.1-54.6-182.4-56.6l-9.6-14.3h49h24.7h6.7h34.2H1388.1 M1388.2,898.1h-56.1h-34.2h-6.7h-24.7
			l-61.9-2l10.5,15.2c0,0,88.6,33.7,194.7,59.9l9.8-9.8l-7.4-7.4v-7l-29.9-29.9h-48.8l-5.3,5.3h-12.8l-17.8-17.8h4.7l8.8,8.8h71.2
			l44.6,44.6l12.2-10.2h121.3l-23.2-27.2C1475.9,920.5,1424.1,908,1388.2,898.1"/>
		<path class="st2" d="M1099,922.8l3.5,4.7h-12.3l-3.5-4.7H1099z M1099.5,921.8h-19.8l5,6.7h19.8L1099.5,921.8z"/>
		<path class="st2" d="M1112.9,940.6l3.5,4.7h-13.4l-3.5-4.7H1112.9z M1113.4,939.6h-20.9l5,6.7h20.9L1113.4,939.6z"/>
		<path class="st2" d="M1047.1,888.4l5,7.5l0.3,0.4h0.5h5.4L1097,950l0.3,0.4h0.5h23.1c19.8,25,50.3,57.7,60.3,68.4
			c-46.5-20.6-94.4-56.7-108.3-67.5c-0.4-0.3-0.8-0.6-1.2-0.9h0l-2.2-1.8l-0.1-0.1l-0.7-0.6l-1-0.8l-0.2-0.2l0,0l0,0
			c-6.8-5.8-29.8-25.6-40.5-37.7l-3.8-4.5l-8.8-10l-4-5l-1.1-1.3H1047.1 M1075.9,937.7h2.5h4.7h2l-1.2-1.6l-18.5-25l-0.3-0.4h-0.5
			h-4.7h-4l1.2,1.6l18.5,25L1075.9,937.7 M1047.6,887.4h-42.5l2.3,2.9l4,5l8.9,10l3.8,4.4c10.7,12.2,35.5,31.8,42.6,37.8l0.3,0.3
			l1.3,1c0.4,0.3,0.6,0.5,0.6,0.5l0-0.1l0.1,0.1h0c0,0,1.2,1,3.4,2.7l0,0c13.5,10.5,64.7,49.1,113,69.6c0,0-39.7-41.8-63.9-72.3
			h-23.6l-39.1-54.1h-5.9L1047.6,887.4z M1078.4,936.7l-18.5-25h4.7l18.5,25H1078.4z"/>
		<path class="st2" d="M1078.7,791.7l-27.9,37.7l-1.2,1.6h2h12v0h1h146.1h0.5l0.3-0.4l2.4-3.3h12.6l-3.4,4.6h-24.6h-2l1.3,1.6
			l17.3,22.3l0.3,0.4h0.5h33.6c28.7,12.1,87.3,29.7,87.9,29.9l15.8,5.1h-139.3h-5.1l-9-12.1h2.8l5.1,6.7l0.3,0.4h0.5h12.3h2
			l-1.3-1.6l-7.9-10.2l-0.3-0.4h-0.5h-11.7h-4.7l-5.8-7.9l-0.3-0.4h-0.5h-9.7h-5.1l-8.6-11.6l-0.3-0.4h-0.5h-9.8h-2l1.2,1.6l3.9,5.1
			l0.3,0.4h0.5h6.2l31.4,41.4c-41.7-16.1-73.4-36.3-79.9-40.6l27.6-19.4l8.4,11.1l0.3,0.4h0.5h9.9h1.9h0.9l8.9,11.7l0.3,0.4h2.5h9.7
			h2l-1.2-1.6l-7.8-10.6l-0.3-0.4h-0.5h-5.5l-15.6-20.7l-0.3-0.4h-0.5h-127h-0.4l-0.3,0.3l-7.2,8.1l-1.5,1.7h2.2h15.3h1.5l0.3-0.4
			l3.4-4.1h24.5l-2,4h-15.2h-4.8l-10.6,12.9h-51.5l-7-10.1l-0.3-0.4h-0.5h-35L932,832.3l-0.3-0.3h-0.5h-68.8H862l-0.3,0.3l-3.5,3.5
			h-58.8l5.5-7H894l2,2l0.3,0.3h0.4h40.2l4,4.2l0.3,0.3h0.4h74.7h0.4l0.3-0.3l4.3-4.3h15.2h0.5l0.3-0.4l28.8-38.9H1078.7
			 M1080.7,790.7h-15.1l-29.1,39.3h-15.7l-4.5,4.5h-74.7l-4.3-4.5h-40.6l-2.2-2.2h-90l-7.1,9h61.3l3.8-3.8h56.8l10.4,12.1h36.4
			l7.3,12.5h67.1l11.4-13.9h21.8l3-7h-33.6l-3.7,4.4h-9.3l5.9-6.9l122.3,0l14.9,19.9h7l7.8,10.6h-9.7l-9.2-12h-3.4h-1.9h-9.9
			l-9-12.8l-34.9,23.9c0,0,44.3,28.1,93.2,46.5l-37.8-50.5l-6.1,0.1l-3.9-5.1h9.8l8.9,12h0.5h5.2h3.7l6.1,8.3h11.2h5.7l7.9,10.2
			h-5.3l-5.4-7.1h-12.3l10.5,14.1h11.6h161.7l-21.9-7.1c0,0-59.1-17.7-88-29.9h-49.8l-17.3-22.3h25.1l4.9-6.6h-15.1l-2.7,3.7h-146.1
			v0h-13L1080.7,790.7z"/>
		<path class="st2" d="M1105.7,931.7l3.5,4.7h-12.7l-3.5-4.7H1105.7z M1106.2,930.7h-20.1l5,6.7h20.1L1106.2,930.7z"/>
		<path class="st2" d="M1570.8,920.2l37.5,44.8h-23.8l-36.4-43.5C1555.5,921.2,1563.1,920.8,1570.8,920.2 M1571.2,919.1
			c-8.6,0.7-23.1,2.1-31.3,2.3l38.1,46.5l32.4-1L1571.2,919.1z"/>
		<path class="st2" d="M728.5,731.6l16.5,16.5l0.3,0.3h0.4h42.6l39.3,39.3l-13.9,19.1c-2.6-1.1-11.8-5.1-22.9-10.3
			c1.5-3,2.3-6.4,2.3-9.8c0-12.1-9.8-21.9-21.9-21.9c-8.1,0-15.4,4.4-19.3,11.5c-3.8-2.3-6.9-4.5-9.4-6.4l-3-2.5
			c-6.1-5.3-12.9-12.9-20.1-22.7l-2.2-3c-2.3-3.2-4.7-6.6-7-10.1H728.5 M734.9,730.6h-26.5c2.3,3.5,5,7.5,8,11.7l2.2,3
			c6.1,8.2,13.2,16.7,20.2,22.8l3,2.5c2.9,2.2,6.5,4.6,10.4,7c3.4-7,10.5-11.9,18.9-11.9c11.6,0,20.9,9.4,20.9,20.9
			c0,3.7-1,7.2-2.7,10.3C803.1,803.4,816,809,816,809l15.8-21.5l-40.2-40.2h-40L734.9,730.6z"/>
		<path class="st2" d="M1064.4,860.8c-0.1,12.8,10.5,27.6,11,28.3l14.1,20.9l2.6,3.6l3.8,5.1h-14.1l-29.2-40.9l-0.3-0.4h-0.5h-6.5
			l-10.3-14.8l-0.3-0.4h-0.5h-10.1h-2l1.2,1.6l3.2,4.3l0.7,0.9l0,0l8,10.8h-20.9h-0.6h-11l-12.1-17.1l-0.3-0.4l-0.9-1.3h32.3h15.5
			h1.4h2.8h6.5H1064.4 M1065.4,859.8h-17.6h-6.5h-2.8h-1.4h-15.5h-45.2l2.2,3.2h0l14.4,19.6h22.5h0.6h22.9l-11.9-15.3l0,0l-3.2-4.3
			h6.1l12.6,17.2h7l27.5,39.3h20.6l-5-6.7l-2.6-3.6l-14-20.8C1076.2,888.5,1064.7,872.6,1065.4,859.8"/>
		<path class="st2" d="M1071.1,845.8l-6.7,8.7h-5.8l6.7-8.7H1071.1z M1079.2,844.8h-14.3l-8.2,10.7h14.3L1079.2,844.8z"/>
		<path class="st2" d="M1059.3,845.5l-6.7,8.7h-5.8l6.7-8.7H1059.3z M1063.4,844.5h-10.3l-8.2,10.7h10.3L1063.4,844.5z"/>
		<path class="st2" d="M1922.6,727.1c-2.8,6.1-15.4,32-43.2,73l-1.1,1.6h1.9h40.1l-4.7,4.7h-40h-53.2h-0.4l-0.3,0.3l-18.7,17.1
			l-44.9-53.1c7.4-11.6,12-19.8,13.2-21.9l103.6-0.2l0.5,0l0.3-0.4l15.6-21H1922.6 M1924.2,726.1h-33.3l-15.9,21.4l-104.8,0.2
			c0,0-9.1,12.4-18.2,26l50.5,58.6l26-22h53.2h40.4l8.7-9.7h-50.5C1912.5,753,1924.2,726.1,1924.2,726.1"/>
		<path class="st2" d="M1540.9,949.4c0.8,0.7,2.9,2.8,5.2,5l0.3,0.3h0.4h14.8l26.7,31.9l-14.2,14.2c-26.4-3.2-46.7-7-47-7.1
			c-33.3-5-67.4-11.7-103.9-20.4l17.2-18.6h19.6h0.4l0.3-0.3l5-5H1540.9 M1541.3,948.4h-76l-5.3,5.3H1440l-19.9,21.9
			c33.8,8.1,70,15.5,106.9,21.1c0,0,20.6,3.9,47.5,7.1l15.2-17.2l-27.6-33h-15.2C1544,951,1541.3,948.4,1541.3,948.4"/>
		<path class="st2" d="M1935.9,702.9l-7,12.7h-39.7h-0.5l-0.3,0.4l-14.8,19.8h-94.9l11.1-20.5h14.9l-3,4.3l-1.1,1.6h1.9h74.7h0.5
			l0.3-0.4l13.2-17.8H1935.9z M1962.6,701.9h-71.7l-13.5,18.2h-74.7l4-5.8h-19.4l-16.2,26.5h105.1l16.1-20.2h59.3L1962.6,701.9z"/>
		<path class="st2" d="M1787.2,918.2c-12.6,13.8-24.7,26.1-36.1,36.6l-1.9,1.7h2.6h88.4l-5.2,5.2h-53.2h-0.4l-0.3,0.3l-4.6,4.6
			h-107.3l-4.6-4.6l-0.3-0.3h-0.4h-17.2h-20.5h-3.8l32.4-32.4h5.8h0.4l0.3-0.3l10.9-10.9H1787.2 M1789.4,917.2h-117.5l-11.2,11.2
			h-6.2l-34.4,34.4h6.2h20.5h17.2l4.8,4.8H1777l4.8-4.8h53.6l7.2-7.2h-90.8C1764.1,944.2,1776.7,931.3,1789.4,917.2"/>
		<path class="st2" d="M1730,972.7c-21.3,16.6-40.7,26.6-57.7,29.9c-9.2,1.8-20.9,2.7-34.7,2.7c-14.3,0-30.9-1-49.5-2.9l20.4-20.4
			l0.7-0.7l-0.7-0.7l-7.9-7.9h16.9h36.5H1730 M1732.9,971.7h-79h-36.5h-19.3l9.6,9.6l-21.9,21.9c16.7,1.8,34.8,3.1,51.7,3.1
			c12.8,0,24.9-0.8,34.9-2.7C1691.1,1000,1711.4,988.7,1732.9,971.7"/>
		<path class="st2" d="M1867.5,817.3c-5,7.1-10.3,14.3-15.7,21.5l-3.8,5c-2.2,3-4.3,5.6-6.3,8.2c-6.6,8.5-13.2,16.9-19.6,24.9
			l-4.1,5c-4.3,5.2-8.4,10.2-12.4,14.9l-1.4,1.6h2.2h39.1l-8.6,8.6h-39.6h-36.1l-0.5,0h-30.1l81.4-81.4h5.6h0.4l0.3-0.3l8.1-8.1
			H1867.5 M1869.5,816.3h-43.2l-8.4,8.4h-6l-89.4,89.4l118.9,0.8l14.2-16.9l-48.9-0.4c4.1-4.9,8.3-9.8,12.4-14.9l4.1-5
			c6.5-8.1,13.1-16.4,19.7-25c2.1-2.8,4.2-5.5,6.3-8.2l3.8-5C1858.7,831.3,1864.3,823.6,1869.5,816.3"/>
		<path class="st2" d="M738.6,720.6l5.7,5.7l0.3,0.3h0.4h11.8l3.7,3.7l0.3,0.3h0.4h9.3l12.9,12.9h-25.7l-16.8-16.8l-0.3-0.3h-0.4
			h-33.3c-1.6-2.5-2.8-4.6-3.6-5.9H738.6 M743,719.6h-41.4c0,0,1.8,3.1,4.8,7.9h33.9l17.1,17.1h31.5l-14.9-14.9h-8.7l-4-4h-12.2
			L743,719.6z"/>
		<path class="st5" d="M771.1,777.5c5.1,0,9.2,4.1,9.2,9.2c0,1.5-0.4,3-1.1,4.3c-6-2.9-11.4-5.8-16.3-8.4
			C764.5,779.5,767.6,777.5,771.1,777.5 M771.1,776.5c-4.3,0-8,2.7-9.5,6.5c5.8,3.2,11.9,6.3,17.9,9.3c1.1-1.6,1.7-3.5,1.7-5.6
			C781.3,781.1,776.7,776.5,771.1,776.5"/>
		<path class="st2" d="M1725.2,817.9l38.1,45.5h-22.2l-26.7-31.9C1718,827.1,1721.6,822.5,1725.2,817.9 M1725.2,816.3
			c-3.8,5-10.9,12.1-15.1,17.2l27.5,33.9l27.8-2L1725.2,816.3z"/>
		<path class="st2" d="M1710.5,836.2l36.4,43.5h-22.2l-25.6-30.6C1702.9,845,1706.7,840.7,1710.5,836.2 M1710.5,834.6
			c-4.1,4.9-11.3,11.7-15.6,16.5l26.4,32.6l27.8-2L1710.5,834.6z"/>
		<path class="st2" d="M1739.3,798.9l40.3,48.2h-22.2l-28.5-34.1C1732.4,808.4,1735.9,803.7,1739.3,798.9 M1739.2,797.2
			c-3.6,5.1-9.5,13.4-13.5,18.8l29.3,36l26.8-3L1739.2,797.2z"/>
		<path class="st2" d="M1695.1,853.6l35.5,42.4h-22.2l-25.3-30.2C1687.1,862,1691.1,857.9,1695.1,853.6 M1695.1,852.1
			c-4.3,4.7-11.8,11.2-16.3,15.7l26.2,32.3l27.8-2L1695.1,852.1z"/>
		<path class="st2" d="M1752,780.3l43,51.4h-20.4l-31.7-37.9C1745.9,789.3,1749,784.8,1752,780.3 M1751.9,778.6
			c-3.1,4.7-8.6,12.9-12.3,18.2l32.5,39.8l25.1-3L1751.9,778.6z"/>
		<path class="st2" d="M1678.8,870l31.1,37.1h-22.2l-21.6-25.8C1670.3,877.8,1674.6,874,1678.8,870 M1678.9,868.6
			c-4.6,4.4-12.4,10.6-17.2,14.7l22.5,27.9l27.8-2L1678.9,868.6z"/>
		<path class="st2" d="M1622,909.7l18.9,22.5h-22.2l-13.9-16.6C1610.5,914.3,1616.2,912.3,1622,909.7 M1622.3,908.5
			c-6.4,2.8-16.8,6.1-23.3,7.6l15.2,19.2l28.8-1L1622.3,908.5z"/>
		<path class="st2" d="M1598.2,917.1l26.3,31.5h-22.2l-24.3-29c5.3-0.5,10.6-1.1,15.7-1.7C1595.2,917.6,1596.6,917.4,1598.2,917.1
			 M1598.6,916c-1.7,0.3-3.3,0.6-5,0.8c-6,0.8-16.8,1.4-22.6,1.9l25.8,31.9h29.8L1598.6,916z"/>
		<path class="st2" d="M1642.7,898.6l14.5,17.3h-22.2l-7.4-8.8C1632.6,904.7,1637.7,901.8,1642.7,898.6 M1642.9,897.3
			c-5.5,3.6-14.2,8.8-19.8,11.5l8.5,11.2l27.8-2L1642.9,897.3z"/>
		<path class="st2" d="M1661.5,885.1l18.4,22h-11.7h-0.4l-0.3,0.3l-5.2,5.2l-14.5-17.3C1652.3,892.2,1656.9,888.8,1661.5,885.1
			 M1661.6,883.7c-5,4-14.1,9.8-19.3,13.3l17.9,21l7.9-9.9h13.9L1661.6,883.7z"/>
		<polygon class="st2" points="742.3,713.8 747.7,719.6 822.4,719.6 828.1,713.8 888.9,713.8 896,720.9 887.4,732.6 896,732.6 
			862.4,779.1 862.4,786.7 906.4,727.3 890,710.9 889.8,710.9 886,710.9 826.9,710.9 822.4,715.4 747.7,715.4 743.4,710.9 
			702.8,710.9 691.5,705.6 617.5,705.6 609.4,713.8 		"/>
		<polygon class="st2" points="1589.6,986.7 1594.3,991.1 1582.4,1004.6 1572.5,1003.5 		"/>
		<polygon class="st2" points="1418.9,960.6 1425,965.3 1416.4,974 1408.6,971 		"/>
	</g>
	<g class="st1">
		<polygon class="st2" points="1030.6,709.4 1022.3,700.6 1096.4,700.6 1096.4,703.6 1029.3,703.6 1032.8,707.3 		"/>
	</g>
	<g class="st1">
		<polygon class="st2" points="1221.8,747.3 1194.6,712 1197,710.2 1222.7,743.6 1271.3,721.5 1264.6,714.7 1266.7,712.6 
			1276.4,722.4 		"/>
	</g>
	<polyline class="st6" points="1533.2,710.4 1539.6,712.6 1627.2,712.6 	"/>
	<polyline class="st6" points="1660.8,706.9 1729.3,706.9 1736.9,714.2 1718.7,737.5 	"/>
</g>
<g>
	<defs>
		<rect id="SVGID_3_" x="-0.9" y="154.3" width="2640.8" height="1459.5"/>
	</defs>
	<clipPath id="SVGID_4_">
		<use xlink:href="#SVGID_3_"  style="overflow:visible;"/>
	</clipPath>
	<g class="st7">
		<defs>
			<polygon id="SVGID_5_" points="639.9,1136.1 2079.3,1174.2 2080.7,403.6 641.3,365.4 			"/>
		</defs>
		<clipPath id="SVGID_6_">
			<use xlink:href="#SVGID_5_"  style="overflow:visible;"/>
		</clipPath>
	</g>
</g>
<polygon class="st2" points="1674,306.3 1568.6,306.3 1568.6,305.3 1673.5,305.3 1710.4,269.2 1711.1,270 "/>
<path class="st2" d="M1902,288.2c-0.2,0-0.4-0.2-0.5-0.4c-1.8-8.6,1.6-17.4,8.8-23c7.1-5.5,16.5-6.5,24.3-2.6
	c4.5,2.2,8.1,5.9,10.4,10.3c0.1,0.2,0,0.5-0.2,0.7c-0.2,0.1-0.5,0-0.7-0.2c-2.2-4.2-5.7-7.7-10-9.9c-7.5-3.7-16.4-2.8-23.3,2.5
	c-6.9,5.3-10.1,13.7-8.4,22c0.1,0.3-0.1,0.5-0.4,0.6C1902,288.2,1902,288.2,1902,288.2z"/>
<path class="st2" d="M1911.9,284.9c-0.1,0-0.2,0-0.3-0.1c-0.1-0.1-0.2-0.2-0.2-0.4c-0.1-5.5,3.3-10.3,8.4-12.2
	c5.1-1.8,10.8-0.2,14.2,4.1c0.1,0.1,0.1,0.3,0.1,0.4c0,0.2-0.2,0.3-0.3,0.3l-21.7,7.8C1912.1,284.8,1912,284.9,1911.9,284.9z
	 M1924.1,272.4c-1.3,0-2.7,0.2-3.9,0.7c-4.5,1.6-7.5,5.8-7.7,10.5l20.4-7.3C1930.6,273.8,1927.4,272.4,1924.1,272.4z"/>
<path class="st2" d="M1516.4,419.1l39.3-37.4l20.1,0.1l-35.5,37.2L1516.4,419.1z M1555.8,383l-37,35.1l21-0.1l33.6-35.1H1555.8z"/>
<g>
	<path class="st2" d="M1853.7,426.4l8.6-23.3l49.8-15.1l-2.2,10.3l-44.5,13.1l-4.7,12.5L1853.7,426.4z M1863.1,403.9l-7.7,20.9
		l4.6-1.6l4.7-12.5l35.4-11.1l1.7-8L1863.1,403.9z"/>
</g>
<polygon class="st2" points="1410,655.9 1409.4,655.1 1471.2,615.7 1451.4,615.8 1496.9,586.7 1512.6,586.9 1512.6,587.9 
	1497.1,587.8 1454.9,614.8 1474.6,614.7 "/>
<polyline class="st8" points="2065.9,413.4 2006,435.3 2016.6,445.4 2069.8,425.6 "/>
<g>
	<polyline class="st8" points="2065.9,413.4 2006,435.3 2016.6,445.4 2053.7,431.5 	"/>
</g>
<g>
	<polygon class="st2" points="2016.5,446 2005.1,435.1 2065.8,413 2066.1,413.9 2006.9,435.4 2016.7,444.8 2055.2,430.5 2054,432 	
		"/>
</g>
<polyline class="st9" points="1552.1,562.4 1531,575.6 1667.5,575.8 "/>
<g>
	<g>
		<polygon class="st2" points="1692.4,493.5 1691.6,493 1696,486.1 1696.2,486 1727.2,471.5 1727.9,466.2 1804,433.4 1800.6,445.3 
			1790.6,449 1793.5,439.1 1728.8,466.8 1728.1,472.2 1696.7,486.9 		"/>
	</g>
</g>
<g>
	<polygon class="st2" points="1194.7,588.4 1185.7,579.6 1206.9,579.8 1284.2,508.3 1295.3,508.3 1295.3,509.3 1286.6,509.3 
		1209.3,580.8 1188.2,580.6 1195.4,587.7 	"/>
</g>
<path class="st5" d="M1665.4,345.3h-41.8l8.6-8h38l30.3-31.3h155.8c15.3-6.3,30.6-12.3,45.9-17.9c0-0.4,0-0.7,0-1.1
	c-15.1,5.6-28.5,9.5-44.1,16h-157l-0.3,0.3l-30,31h-38l-0.3,0.3l-9.6,10l-1.6,1.7h44.6l0.3-0.3l29-29h316l-5.8,5.8h-152.6l-0.3,0.3
	l-14.7,14.7h-55.5l-0.2,0.1c-33.5,15.9-66.5,31.7-102,51h-98.4l-35,35h-103.9l-2.3,2.2c-18,15.2-35.8,30.9-52.9,46.5l-0.3,0.3v5.3
	l-23.8,23.8h-28.4l-3.8-4.7l-2.5-0.1h-20l52.8-48.1h31.5l1.3-1.3l41.1-41.1l0.3-22.1c67.4-52.2,119.5-73.7,121-74.4
	c29.8-10.2,60.9-19.2,92.3-26.9l45.4-10.1c97.2-19.7,182.5-23.8,236.9-23.8c41.2,0,70.3,2.3,82.3,3.5c-22,5.1-45.2,11.7-69.3,19.5
	c0.2,0.3,0.4,0.6,0.5,0.9c25.3-8.2,60.1-15.9,84.6-21.4c0,0-42.9-5.5-98-5.5c-58.7,0-142.4,4.6-237.1,23.8l-45.4,10.1
	c-30.1,7.4-61,16.3-92.4,26.9c0,0-52.4,21.2-121.6,74.8l-0.4,24.3l-40.6,40.6h-31.4l-54.9,50.1l-2.3,0l23.6-21.7l-6.7-0.1l35.4-32.3
	l11.6,0l0-1l-14,0l-37.6,34.2l6.8,0.1l-26.6,24.8l34.9,0l3.2,4.8h27.7l25-27.4v-5.3c13.6-12.5,31.7-28.6,52.8-46.5h104l35-35h98.3
	c33.3-18.1,68.3-36.1,104.2-53.1h55.7l15-15h152.6l7.8-7.8h-318.8L1665.4,345.3z"/>
<g>
	<polygon class="st2" points="1368.5,442.1 1367.5,442.1 1367.8,432.3 1368,431.2 1429.7,378.6 1429.6,390.5 1427.6,391.5 
		1427.7,382.8 1368.8,432.8 	"/>
</g>
<g>
	<polygon class="st2" points="1647.7,274.9 1647,274.2 1676.9,242.6 1702.1,263.4 1691.5,265.2 1671.1,249.9 	"/>
</g>
<polygon class="st9" points="1671.5,254.6 1655.4,272.9 1686.5,265.9 "/>
<line class="st9" x1="2017.1" y1="252.8" x2="1992.3" y2="242.5"/>
<polyline class="st9" points="2007.3,560.5 2013.6,560.5 2024.1,551.6 2043.3,498.1 2029.6,503.5 "/>
<polyline class="st9" points="1771.9,447.8 1773.3,442.7 1860.8,409.2 "/>
<polyline class="st9" points="1860.4,316.4 1870.1,310 1977.3,309.5 1967.8,316.4 "/>
<polygon points="1384.5,576.3 1419.1,576.3 1499.8,520.1 1465.1,520.1 "/>
<polygon points="1489.3,503 1520.9,503 1671.5,411.2 1639.9,411.2 "/>
<polyline points="1676,391.9 1782.1,337.8 1805.5,337.8 1699.6,391.9 "/>
<polygon points="1836.8,338.8 1851.4,338.8 1867.2,322.8 1852.7,322.8 "/>
<polygon points="1853.7,305.9 1880.1,306.3 1927,289.3 1901.4,287.3 "/>
<polygon points="1944.5,273.2 1968.1,275.2 2038.1,251.9 2014.4,250.9 "/>
<polygon points="1911.9,284.9 1937.3,286.9 1959.5,278.2 1934.1,276.2 "/>
<polygon points="1362.3,503.1 1365.5,503 1390.3,478.3 1387.1,478.3 "/>
<polygon points="1387.1,472.9 1392.3,472.9 1445.7,425.9 1440.6,425.9 "/>
<polygon points="1543.4,426.9 1543.4,426.9 1547.2,426.9 1583.3,390.9 1579.5,390.9 "/>
<polygon points="1516.4,419.1 1527.2,419.1 1566.5,381.8 1555.7,381.7 "/>
<g>
</g>
<g>
</g>
<polygon points="1621.3,346.3 1628.5,346.3 1640,334.3 1632.9,334.3 "/>
<polygon points="1676.4,306.4 1661.5,306.3 1698.4,270.2 1713.2,269.4 "/>
<polygon points="1840.4,530.5 1866,530.5 1979.6,480.6 1954,480.6 "/>
<polygon points="1717.9,587 1718.6,587.8 1740.8,586.8 1831.9,543.9 1808.6,544.9 "/>
<polygon points="1989.2,466.5 2006.8,465.5 2054.7,447.4 2067.3,428.8 2052.9,431.3 2036.1,447.4 "/>
<path d="M1792.3,493.4l14.6-17.7c1.5-0.8,150.6-83,276.4-100.3L2077,394C1951.8,411.3,1793.8,492.6,1792.3,493.4z"/>
<path class="st2" d="M1864.8,422.4l-0.9-0.3l3.1-8.4l0.2-0.1c1.3-0.4,135.7-43.9,199-44.3l4.1,0l13.1,6.1l-6,2
	c-1.8,16.2-17.2,18.3-17.4,18.4l1-2.3c0.2-0.1,15.3-2.2,17.3-17.4l-12.2-5.7c-61.9,0.4-192,42.1-198.3,44.2L1864.8,422.4z"/>
<polygon points="2006.9,435.4 2012.1,435.4 2068.5,413.1 2065.4,413.1 "/>
<path class="st8" d="M2067.5,413.1"/>
<polygon points="2064.5,414.1 2072.5,413.1 2079.2,401.9 2070.4,402.7 "/>
<polygon points="1573.3,565.3 1585.1,565.2 1612.7,550.2 1601,550.2 "/>
<polygon points="1640.6,526.8 1652.4,526.8 1680,511.8 1668.4,511.8 "/>
<polygon points="1605.8,546.1 1617.6,546.1 1645.3,531 1633.5,531 "/>
<polygon points="2002.6,574.1 2016.4,574 2021.7,560 2008.1,560 "/>
<polygon points="2012.6,560.8 2025.3,560.5 2036,551.4 2023.4,551.4 "/>
<polygon points="2023.4,551.4 2036,551.4 2057.8,491.6 2043,497.7 "/>
<polygon class="st2" points="1496.9,586.7 1505.4,586.8 1464.1,614.8 1451.4,615.8 "/>
<g>
	<path class="st2" d="M853.3,768.2l-8.5-2l-47-43.1l30-0.1l0.1,0.1l37.3,31.1L853.3,768.2z M845.2,765.2h5.6l8.1-10.8L822.5,724
		l-22.1,0.1L845.2,765.2z"/>
</g>
<polygon class="st2" points="618.8,704.4 612,711.9 731.2,711.9 734.8,712.7 784.6,712.7 788.4,708.9 828.9,708.9 833.7,713.6 
	836.4,712.6 829.7,705.9 787.6,705.9 782.6,710.9 738.8,710.9 732,707.9 704.9,707.9 703.4,704.4 "/>
<polygon class="st2" points="1641.7,623 1648.8,622.9 1588,655.4 1582,655.4 "/>
<polygon points="1387.4,472.6 1395.3,470.3 1395.9,475.3 1387.8,480.8 "/>
<polygon points="1526.6,513 1553,513 1530.5,525.1 1508.5,525.1 "/>
<polygon points="1697,401.9 1674.7,415.2 1688.6,415.1 1707.7,401.9 "/>
<polygon points="2013.5,316 2025.8,316 2018.8,323.8 2005.7,323.8 "/>
<polygon points="1974.9,309 1987.3,308.9 1980,316.4 1967,316.4 "/>
<polygon points="2025.5,483.6 2038.7,483.6 2061.5,474.5 2049.8,474.5 "/>
<polygon points="1883.2,536.9 1906.5,536.9 1924.5,529.3 1903.6,529.4 "/>
<g>
	<polygon class="st2" points="1645.2,824.8 1695.2,757.5 1703.2,768 1698.3,774.6 1702.3,779.9 1671,822 1679,822 1719.3,768 
		1704.6,749.2 1683.7,749.2 1656,749.2 1645.3,749.2 1613.9,749.2 1612,751.7 1690.7,751.7 1693.3,755.1 1688,755.1 1660.3,755.1 
		1649.6,755.1 1604.4,755.1 1595.2,755.1 1597.6,751.7 1606.9,751.7 1615.8,739.7 1704.2,739.7 1726.3,712.7 1635.8,712.7 
		1614.1,712.7 1599.2,712.7 1547.7,782.1 1568.7,782.1 1584.4,782.1 1595.2,782.1 1640.3,782.1 1649.6,782.1 1647.1,785.4 
		1637.8,785.4 1628.6,797.8 1527.2,797.8 1528.6,808.8 1524.9,808.8 1523.5,797.8 1523.4,797.8 1521.5,782.7 1510.7,782.7 
		1514.2,809.8 1514.3,809.8 1516.2,824.8 1608.6,824.8 1641.5,824.8 	"/>
	<polygon class="st2" points="1674.4,824.5 1663.3,824.5 1696.5,779.9 1694,776.7 1655.4,828.4 1616.3,828.4 1612,833 1652,833 
		1654.5,833 1668,833 	"/>
	<path class="st2" d="M1498.4,989.9l15,12.2c-73.4-9.6-217-54.1-222.1-55.7l-12.9-13.9l-13.7-4.3l14.1,15.2l12.1,3.9
		c1.5,0.5,150.2,46.8,224.1,56l1.7,0.2l-17.7-14.4L1498.4,989.9z"/>
	<polygon class="st2" points="1437,910.6 1435.4,910.9 1427,920 1409.3,904.3 1395.1,900.4 1422.2,927.6 	"/>
	<polygon class="st2" points="1963,736 1961.4,736 1961.4,736 1961.4,736 1928.1,736.4 1933.1,726.2 1923.4,726.2 1918.2,737.1 
		1918.7,737.1 1918.6,737.5 1960.7,737 1956.6,743 1956.2,743.5 1930.9,743.6 1930.9,743.6 1930.9,743.6 1925.8,753 1915.2,753.1 
		1915.2,753.1 1909.3,753.1 1878.8,801.7 1890.1,801.2 1917.5,757.1 1923.2,757 1932,757.1 1936.9,747.6 1953.6,747.5 1970.1,747.5 
		1978.1,735.9 1963,736 	"/>
	<path class="st2" d="M1046.6,946.9c-0.1-0.1-0.1-0.1-0.2-0.2l-9.9-9.9l16.3-1.5l-0.1-1l-10.2,0.7l-8.1-8.1l9-0.3l0-1l-10.1,0.2
		l-7.5-7.6l8.7-0.2l0-1l-9.7,0.2l-6.9-8.2l8-0.2l0-1l-8.8,0.2l-6.4-7.7l8-0.2l-0.5-1l-15.6,0.3l7.3,8.7l-0.1,0l7.8,9.3l-0.1,0
		l8.6,8.7l0,0l9.5,9.5l-8.3,0.5l11.4,11.4c0.1,0.1,0.2,0.2,0.3,0.3c1.8,1.3,49.9,39.1,90.1,43.2l-7-4.6
		C1090.1,978.9,1048.4,948.3,1046.6,946.9z"/>
	<polygon class="st2" points="1936.8,702 1928.7,716.7 1953.5,716.7 1961.4,702 	"/>
	<line class="st2" x1="1988.6" y1="700.3" x2="1955.3" y2="700.3"/>
	<polygon class="st2" points="1915.2,807.4 1922.4,807.4 1928.7,800.7 1921.2,800.7 	"/>
	<polygon class="st2" points="1775.9,967.6 1782.3,967.7 1787.1,962 1781.8,961.8 	"/>
	<polygon class="st2" points="1830.9,944.1 1830.5,944.6 1775,944.3 1763.3,955.8 1770.3,955.9 1769.7,956.6 1775.9,956.3 
		1780.8,950.3 1825.4,950.4 1824.9,951 1831.3,951 1836.6,944.1 	"/>
	<polygon class="st2" points="1834.4,962.8 1840.5,962.8 1846.4,955.4 1841.5,955.6 	"/>
	<polygon class="st2" points="1788.2,917.3 1749.5,956.6 1755.8,956.6 1793.7,917.3 	"/>
	<path class="st2" d="M1664.8,1004.2c29.3,1,72.6-32.4,72.6-32.4h-9.8C1703.9,994.6,1664.8,1004.2,1664.8,1004.2z"/>
</g>
<polygon class="st2" points="1825.4,898 1804.8,898 1868.8,816 1889.4,816 "/>
<path class="st10" d="M751.1,776.9c3.7-7.4,11.2-12.5,20.1-12.6c12.6-0.2,23,9.7,23.3,22.3c0.1,4.2-1,8.1-2.9,11.5"/>
</svg>
